<svg xmlns="http://www.w3.org/2000/svg" viewBox="0 0 800 200" font-family="-apple-system, system-ui, sans-serif">
  <defs>
    <style>
      .box { fill: #1a1a1a; stroke: #1a5a96; stroke-width: 2; }
      .label { fill: #e0e0e0; font-size: 13px; text-anchor: middle; }
      .sub { fill: #888; font-size: 10px; text-anchor: middle; }
      .arrow { stroke: #666; stroke-width: 2; fill: none; marker-end: url(#arrowhead); }
    </style>
    <marker id="arrowhead" markerWidth="10" markerHeight="7" refX="10" refY="3.5" orient="auto">
      <polygon points="0 0, 10 3.5, 0 7" fill="#666"/>
    </marker>
  </defs>

  <rect width="800" height="200" fill="#111"/>

  <!-- Browser -->
  <rect x="20" y="75" width="110" height="50" rx="8" class="box"/>
  <text x="75" y="97" class="label">Browser</text>
  <text x="75" y="113" class="sub">PWA</text>

  <!-- Arrow -->
  <line x1="132" y1="100" x2="158" y2="100" class="arrow"/>

  <!-- Vercel Express API -->
  <rect x="160" y="75" width="160" height="50" rx="8" class="box"/>
  <text x="240" y="97" class="label">Vercel Express API</text>
  <text x="240" y="113" class="sub">auth + routes + sessions</text>

  <!-- Fan-out arrows -->
  <line x1="322" y1="88" x2="358" y2="55" class="arrow"/>
  <line x1="322" y1="112" x2="358" y2="145" class="arrow"/>

  <!-- BC Self-Serve (Puppeteer) -->
  <rect x="360" y="30" width="200" height="50" rx="8" class="box"/>
  <text x="460" y="52" class="label">BC Self-Serve</text>
  <text x="460" y="68" class="sub">Puppeteer + @sparticuz/chromium</text>

  <!-- Vercel Blob Cache -->
  <rect x="360" y="120" width="200" height="50" rx="8" class="box"/>
  <text x="460" y="142" class="label">Vercel Blob Cache</text>
  <text x="460" y="158" class="sub">tally-cache/userId/results.json</text>

  <!-- Arrow: BC Self-Serve -> myselfserve.gov.bc.ca -->
  <line x1="562" y1="55" x2="588" y2="55" class="arrow"/>

  <!-- myselfserve -->
  <rect x="590" y="30" width="180" height="50" rx="8" class="box"/>
  <text x="680" y="52" class="label">myselfserve.gov.bc.ca</text>
  <text x="680" y="68" class="sub">BC government portal</text>
</svg>
