<svg xmlns="http://www.w3.org/2000/svg" viewBox="0 0 200 200" width="200" height="200">
  <rect width="200" height="200" rx="32" fill="#f5f5f7" stroke="#d1d5db" stroke-width="1"/>
  <!-- Clipboard body -->
  <rect x="45" y="45" width="110" height="130" rx="10" fill="#ffffff" stroke="#1a5a96" stroke-width="2"/>
  <!-- Clipboard clip -->
  <rect x="72" y="36" width="56" height="18" rx="6" fill="#1a5a96"/>
  <rect x="82" y="30" width="36" height="12" rx="6" fill="#f5f5f7" stroke="#1a5a96" stroke-width="1.5"/>
  <!-- Checklist items -->
  <rect x="62" y="78" width="14" height="14" rx="3" fill="none" stroke="#2472b2" stroke-width="1.5"/>
  <polyline points="65,86 68,89 74,81" fill="none" stroke="#1d6fb8" stroke-width="2" stroke-linecap="round" stroke-linejoin="round"/>
  <rect x="84" y="82" width="55" height="6" rx="3" fill="#1a5a96" opacity="0.6"/>
  <rect x="62" y="104" width="14" height="14" rx="3" fill="none" stroke="#2472b2" stroke-width="1.5"/>
  <polyline points="65,112 68,115 74,107" fill="none" stroke="#1d6fb8" stroke-width="2" stroke-linecap="round" stroke-linejoin="round"/>
  <rect x="84" y="108" width="45" height="6" rx="3" fill="#1a5a96" opacity="0.6"/>
  <rect x="62" y="130" width="14" height="14" rx="3" fill="none" stroke="#2472b2" stroke-width="1.5"/>
  <rect x="84" y="134" width="50" height="6" rx="3" fill="#1a5a96" opacity="0.3"/>
  <!-- Graduation cap (bottom-right corner) -->
  <g transform="translate(130, 148)">
    <polygon points="20,8 0,16 20,24 40,16" fill="#1a5a96" opacity="0.8"/>
    <line x1="20" y1="24" x2="20" y2="16" stroke="#2472b2" stroke-width="1.5"/>
    <rect x="18" y="14" width="4" height="4" rx="1" fill="#2472b2"/>
    <line x1="38" y1="16" x2="38" y2="26" stroke="#1a5a96" stroke-width="1.5"/>
    <circle cx="38" cy="27" r="1.5" fill="#1a5a96"/>
  </g>
</svg>
